<?xml version="1.0" encoding="UTF-8"?><svg id="Layer_1" xmlns="http://www.w3.org/2000/svg" viewBox="0 0 512 433.55"><path d="m0,0h29.62v35.75h420.48V15.13c21.06,12.14,41.06,23.68,61.9,35.7-20.76,11.99-40.72,23.52-61.47,35.5v-20.21h-32.29v88.67h30.88v278.76H32.13V155.04h30.88v-88.86H29.85v35.82H0V0Zm61.71,184.43v219.4h357.81v-219.4c-2.15,0-3.95,0-5.75,0-14.83,0-29.66-.12-44.49.08-3.71.05-6.02-.99-8.19-4.13-15.11-21.8-35.52-36.79-60.5-45.37-34.48-11.84-69.65-12.54-104.91-4.47-30.95,7.09-56.6,22.97-75.12,49.23-2.54,3.61-5.11,4.81-9.37,4.75-16.31-.24-32.62-.1-49.47-.1Zm26.23-29.56c2.76,0,4.94-.25,7.04.05,4.58.65,7.55-1.12,10.51-4.71,10.39-12.61,23.08-22.61,37.47-30.29,45.07-24.04,92.84-29.59,142.46-19.33,36.42,7.53,68.68,23.07,92.92,52.51.73.89,2.16,1.62,3.31,1.68,3.77.21,7.56.08,11.57.08v-88.78H87.93v88.79Z"/><path d="m94.06,369.87h-15.59v-82.83h154.41v82.71h-15.61c-1.24-6.18-2.48-12.31-3.82-18.94-1.96,0-3.75,0-5.54,0-34.96,0-69.93.08-104.89-.11-4.24-.02-5.86,1.16-6.28,5.36-.46,4.6-1.74,9.11-2.69,13.8Zm114.84-58.76h-106.46v15.15h106.46v-15.15Z"/><path d="m251,238.66c4.25-4.27,8.24-8.26,12.44-12.48,20,20.04,39.95,40.03,60.34,60.46,2.24-2.43,4.11-4.46,6.25-6.77-7.82-5.57-3.84-13.65-4.55-20.75-.09-.86,1.04-2.02,1.85-2.77,13.62-12.49,27.29-24.94,41.35-37.77,2.48,2.82,4.86,5.51,7.38,8.38-10.15,10.08-20.64,20.49-31.59,31.36,1.99,1.57,3.41,2.69,5.26,4.15,10.5-10.04,21.15-20.22,31.94-30.53,2.64,2.73,5.13,5.3,7.88,8.15-10.13,10.59-20.35,21.26-30.66,32.04,1.63,1.49,2.95,2.69,4.23,3.86,10.33-10.39,20.63-20.75,31.31-31.5,2.87,3.35,5.2,6.07,7.87,9.18-3.08,3.4-6.72,7.45-10.4,11.48-8.42,9.23-16.93,18.38-25.22,27.72-2.19,2.47-4.46,3.71-7.74,3.33-1.81-.21-3.67-.13-5.49-.02-4.43.26-8.73.26-11.39-4.62-2.18,2.34-4.04,4.33-5.81,6.23,19.26,19.34,38.72,38.88,58.2,58.44-4.85,4.55-9.18,8.61-13.15,12.33-19.14-18.48-38.98-37.64-59.2-57.18-18.75,19.16-38.02,38.86-57.29,58.55-4.43-4.4-8.55-8.5-13.12-13.04,17.74-17.37,35.43-34.68,53.45-52.32-18.04-21.98-35.96-43.81-54.12-65.93Z"/><path d="m218.98,273.77h-24.49c0-6.69-.13-13.15.06-19.61.09-3.09-.75-4.69-3.97-5.7-23.26-7.35-46.43-7.6-69.7-.03-3.13,1.02-4.12,2.45-4.01,5.63.24,6.45.07,12.91.07,19.65h-24.05c-.17-1-.5-2.08-.51-3.17-.04-12.32.04-24.65-.07-36.97-.03-2.75.78-4.02,3.54-4.96,40.07-13.55,80.08-13,120.04.27,1.28.43,2.94,2.32,2.96,3.55.21,13.63.13,27.26.13,41.33Z"/></svg>