<svg width="663" height="135" viewBox="0 0 663 135" fill="none" xmlns="http://www.w3.org/2000/svg">
<path d="M14.5786 25.1975C12.3138 30.102 11.1814 34.4891 11.1814 38.3587C11.1814 46.3579 13.9311 51.2424 19.4306 53.0122C21.0362 53.4351 22.6897 53.6493 24.3501 53.6497C26.057 53.6429 27.7568 53.4288 29.4121 53.0122C32.6561 52.1804 35.7401 50.8171 38.5387 48.9776C41.2284 47.1828 42.9282 45.4605 43.6382 43.8107C45.523 39.4211 47.5503 37.2263 49.7201 37.2263C50.8075 37.2263 51.5349 37.8413 51.9174 39.0711C52.1059 39.5658 52.1552 40.1027 52.0598 40.6235C51.5643 44.3932 50.5393 48.0741 49.0151 51.5574C47.1037 55.8435 44.9039 59.9951 42.4308 63.9837C47.64 63.9796 52.8311 64.5964 57.8943 65.821C58.8842 66.0535 59.3941 66.3909 59.3941 66.8109C59.3941 67.2308 58.7117 67.4258 57.3468 67.0958C54.0821 66.2509 49.3851 65.826 43.2557 65.821H41.4034C38.3031 70.1882 34.3988 73.9245 29.8995 76.8299C25.6331 79.7684 20.9097 81.9806 15.9209 83.3768C13.8487 83.9732 11.7095 84.3058 9.55405 84.3666C8.06619 84.4036 6.58282 84.1881 5.16699 83.7292C1.72233 82.4543 0 80.792 0 78.7422C0.0178142 78.054 0.18679 77.3781 0.49495 76.7624C1.76983 73.9277 5.11949 71.3079 10.544 68.9032C14.6787 67.057 19.0502 65.795 23.5327 65.1535C28.6105 64.4514 33.7278 64.0732 38.8536 64.0212C42.1436 58.6178 44.5582 52.7281 46.008 46.5704L46.2854 45.3705C43.9602 47.5867 41.3828 49.5223 38.6062 51.1374C36.257 52.5788 33.7542 53.7535 31.1444 54.6396C28.4427 55.5894 25.6143 56.1303 22.7527 56.2444C20.7909 56.2824 18.838 55.97 16.9858 55.322C13.8621 54.2009 11.2474 51.9909 9.62155 49.0976C7.5286 45.5258 6.47656 41.4398 6.58435 37.3013C6.58435 32.7218 7.78673 27.8148 10.1915 22.5803C7.0768 19.3706 5.51945 15.9609 5.51945 12.3513C5.51945 8.74163 6.98181 5.30947 9.90652 2.0548C10.4765 1.43986 10.8889 1.21488 11.1439 1.37986C11.3989 1.54485 11.2939 1.95731 10.8289 2.61724C8.70914 5.45196 7.64674 8.30668 7.64174 11.1814C7.69253 14.6178 9.00275 17.916 11.3239 20.4505C11.7962 19.5044 12.3168 18.5833 12.8837 17.6908C16.4675 11.7402 21.6692 6.9312 27.8822 3.82462C32.2961 1.41667 37.224 0.104946 42.2508 0C43.5309 0.00159629 44.8092 0.0968418 46.0754 0.284973C52.1648 1.22988 56.2694 3.72963 58.3892 7.78423C59.2378 9.38703 59.6758 11.1752 59.6641 12.9887C59.5957 15.1068 58.9864 17.1721 57.8943 18.9881C55.2545 23.5677 50.63 26.7773 44.0206 28.6172C40.5454 29.6106 36.9487 30.1154 33.3342 30.117C25.69 30.092 19.4381 28.4522 14.5786 25.1975ZM3.60714 79.1922C3.60714 80.512 4.73953 81.4069 7.00431 81.8769C7.81644 82.076 8.65045 82.1717 9.48656 82.1619C12.8312 82.1619 17.0808 80.9595 22.2353 78.5547C28.4508 75.8194 33.8043 71.4433 37.7213 65.896C33.3612 65.9808 29.0118 66.3591 24.7026 67.0284C19.222 67.8644 13.9846 69.8668 9.34407 72.9003C5.51945 75.355 3.60714 77.4548 3.60714 79.1997L3.60714 79.1922ZM43.8782 2.19728C39.8236 2.19728 35.5315 3.56465 31.0019 6.29938C24.2762 10.3429 18.8861 16.2727 15.501 23.3527C17.7765 25.0932 20.393 26.335 23.1802 26.9973C25.4551 27.6116 27.7923 27.9664 30.147 28.0547C40.106 28.0547 47.6328 25.39 52.7273 20.0605C55.277 17.3208 56.5519 14.5711 56.5519 11.8113C56.5519 7.47176 54.1221 4.54705 49.2626 3.0372C47.5218 2.48139 45.7055 2.19807 43.8782 2.19728H43.8782Z" fill="white"/>
<path d="M59.9491 46.9978C59.2694 48.7078 58.933 50.5349 58.9592 52.3748C58.9058 53.4834 59.2166 54.579 59.8441 55.4945C60.4354 56.2774 61.3767 56.7157 62.3563 56.6644C66.6459 56.6644 70.538 52.6298 74.0327 44.5606C74.3627 43.8107 74.7826 43.4732 75.2326 43.5707C75.4041 43.5974 75.5273 43.7499 75.5176 43.9232C75.0722 45.2072 74.541 46.4599 73.9277 47.6728C73.0573 49.6412 71.9761 51.5094 70.703 53.2447C68.2933 56.5494 65.3211 58.2017 61.7864 58.2017C60.0062 58.2305 58.2858 57.56 56.9944 56.3344C55.6389 55.0247 54.9168 53.1923 55.0146 51.3099C55.0559 48.9822 55.566 46.6867 56.5144 44.5606C57.5473 42.1453 58.9432 39.9021 60.654 37.9088C62.266 35.9515 64.3231 34.4087 66.6534 33.4092C67.633 32.9591 68.6952 32.7165 69.7731 32.6968C70.7564 32.6968 71.7178 32.9918 72.5323 33.5438C73.251 34.0511 73.6942 34.8626 73.7327 35.7415C73.7327 38.5762 72.0354 41.2884 68.6407 43.8782C67.3018 44.8302 65.8178 45.5595 64.2461 46.0379C62.8695 46.57 61.4212 46.8935 59.9491 46.9978ZM71.8354 35.674C71.8354 34.7291 71.4605 34.2566 70.703 34.2566C69.3831 34.2566 67.3834 35.8839 64.7036 39.1386C63.0499 41.1941 61.6266 43.4247 60.4591 45.7905C61.6642 45.6972 62.8467 45.4111 63.9612 44.9431C65.4117 44.4256 66.7634 43.6647 67.9583 42.6933C70.543 40.4635 71.8354 38.1237 71.8354 35.674Z" fill="white"/>
<path d="M87.1264 33.1242C90.5661 33.1242 92.2884 35.294 92.2934 39.6336C92.2364 41.8456 91.7044 44.0195 90.7335 46.0079C89.3449 49.1687 87.3206 52.0099 84.7866 54.3546C85.4016 55.5395 86.5114 56.1244 88.1163 56.1244C89.5414 56.0485 90.8608 55.349 91.7234 54.2121C92.8979 53.0617 93.921 51.7664 94.7681 50.3575C95.3831 49.2476 95.8255 48.4377 96.1105 47.9127C96.3954 47.3878 96.7629 46.6529 97.2054 45.663L98.0228 43.8931C98.1048 43.6943 98.3029 43.5682 98.5177 43.5782C98.9902 43.5257 99.2227 43.6907 99.2227 44.0731C99.2149 44.2461 99.1688 44.4151 99.0877 44.5681L98.6602 45.558C98.3753 46.2179 98.1653 46.6904 98.0228 46.9753C97.8803 47.2603 97.6328 47.7253 97.2729 48.4752C96.9129 49.2251 96.6129 49.7801 96.3505 50.2075C96.088 50.635 95.7355 51.1974 95.2931 51.9023C94.9262 52.4942 94.5229 53.0627 94.0857 53.6047C93.7357 54.0246 93.3008 54.4971 92.7808 55.022C92.3293 55.479 91.8259 55.8817 91.281 56.2219C90.2903 56.8708 89.1421 57.2389 87.9588 57.2868C86.2594 57.3705 84.6108 56.6945 83.4592 55.442C81.2845 57.0468 79.2846 57.8493 77.4598 57.8493C74.0102 57.8493 72.2878 55.6795 72.2928 51.3399C72.3419 49.1407 72.861 46.9775 73.8152 44.9955C75.1746 41.7831 77.2226 38.9082 79.8146 36.5739C82.3794 34.2741 84.8166 33.1242 87.1264 33.1242ZM87.8763 35.314C86.6089 35.314 85.0941 36.1689 83.3768 37.8637C81.4309 39.8813 79.8613 42.2306 78.7422 44.8005C77.0824 48.1952 76.2549 50.9799 76.26 53.1547C76.265 55.3295 77.0924 56.4144 78.7422 56.4094C79.9171 56.4094 81.237 55.772 82.7018 54.4971C81.9715 53.489 81.5754 52.2773 81.5694 51.0324C81.6444 49.0076 82.4519 47.9952 83.9917 47.9952C84.5598 47.9835 85.1057 48.2155 85.4915 48.6327C85.8332 48.9288 86.048 49.345 86.0915 49.7951C86.0897 50.1665 86.0444 50.5365 85.9565 50.8975C86.9939 49.2899 87.9162 47.6109 88.7162 45.8729C89.8417 43.6803 90.4473 41.258 90.4861 38.7936C90.5235 36.4764 89.6461 35.314 87.8988 35.314H87.8763Z" fill="white"/>
<path d="M107.509 29.5171C107.509 31.6369 106.164 33.6367 103.475 35.5165C104.412 35.5615 105.68 35.584 107.262 35.584C108.844 35.584 110.831 35.4715 113.261 35.2315C113.393 35.5935 113.442 35.9805 113.404 36.3639C113.304 37.3184 113.016 38.2437 112.556 39.0861C111.986 40.2935 111.484 41.3359 111.056 42.2058C110.629 43.0757 110.179 43.9007 109.782 44.6806C109.384 45.4605 108.934 46.4129 108.439 47.5453C107.944 48.6777 107.524 49.7201 107.194 50.6575C106.019 54.2521 106.209 56.047 107.764 56.042C109.764 56.042 112.689 52.1023 116.538 44.2231C116.868 43.6082 117.138 43.3682 117.356 43.4732C117.547 43.5834 117.666 43.7853 117.671 44.0056C117.453 44.7714 117.146 45.5089 116.756 46.2029C116.141 47.4478 115.481 48.7377 114.769 50.0575C113.822 51.7387 112.692 53.3105 111.401 54.7446C109.609 56.9194 107.884 57.9993 106.234 57.9993C104.39 57.9993 103.115 56.8969 102.41 54.6771C102.245 54.0537 102.174 53.4091 102.2 52.7648C102.272 51.5942 102.546 50.445 103.01 49.3676C103.738 47.5811 104.603 45.8536 105.597 44.2006C106.772 42.1758 107.432 40.9859 107.577 40.631C107.712 40.305 107.783 39.9563 107.787 39.6036C107.787 38.1412 105.905 37.3538 102.125 37.2638L101.277 39.5136C98.3077 47.2978 95.453 52.5123 92.7133 55.157C92.2408 55.5845 92.0084 55.442 92.0084 54.7296C92.0177 54.5559 92.0664 54.3867 92.1508 54.2346C94.963 50.4168 97.2623 46.2466 98.9902 41.8309C100.808 37.4553 102.16 32.9007 103.025 28.2422C103.31 26.7798 103.97 26.0449 105.005 26.0449C106.039 26.0449 106.797 26.7049 107.254 28.0247C107.419 28.5052 107.505 29.0091 107.509 29.5171Z" fill="white"/>
<path d="M111.469 80.242C107.034 80.242 104.817 78.4272 104.817 74.7976C104.817 71.7979 106.869 69.0832 110.974 66.6534C115.229 64.2965 119.711 62.3769 124.353 60.924C126.852 60.119 128.667 59.4816 129.797 59.0116C131.061 55.2192 131.685 51.2426 131.642 47.2453C131.661 46.6072 131.613 45.9688 131.499 45.3405C129.998 48.2862 128.169 51.0534 126.048 53.5897C123.313 56.9844 120.6 58.3042 117.911 57.5493C115.461 56.5144 114.234 54.4871 114.229 51.4674C114.229 47.4128 116.258 42.9533 120.318 38.0887C122.291 35.6045 125.026 33.8388 128.102 33.0642C128.879 32.8524 129.682 32.7538 130.487 32.7718C132.733 32.8109 134.91 33.5531 136.712 34.894C137.461 35.509 137.844 36.0264 137.844 36.4464C137.836 36.8947 137.689 37.3295 137.424 37.6913C137.139 38.0887 136.846 38.1337 136.539 37.8263C136.272 37.5859 136.066 37.285 135.939 36.9488C135.324 35.199 134.324 34.3241 132.939 34.3241C130.44 34.3241 127.632 36.0739 124.518 39.5736C122.798 41.5319 121.29 43.666 120.018 45.9404C118.488 48.7452 117.738 50.95 117.738 52.4948C117.738 54.0397 118.203 55.0521 119.148 55.577C119.461 55.7109 119.798 55.7822 120.138 55.787C121.223 55.787 122.58 55.037 124.21 53.5372C125.97 51.8715 127.484 49.9653 128.71 47.8753C129.805 46.2054 130.696 44.4103 131.365 42.5283C131.739 41.2534 132.204 40.451 132.744 40.121C133.292 39.7894 133.912 39.5963 134.552 39.5586C135.023 39.5637 135.486 39.4419 135.894 39.2061C136.301 41.6846 136.492 44.1938 136.464 46.7054C136.399 50.0072 135.894 53.2856 134.964 56.4544C136.705 55.2939 138.269 53.8868 139.606 52.2773C140.415 51.2213 141.147 50.1085 141.796 48.9476C142.336 47.9578 142.823 46.9829 143.251 46.0154C143.678 45.048 143.956 44.4181 144.098 44.1406C144.233 43.8591 144.496 43.6606 144.803 43.6082C145.133 43.5332 145.298 43.6907 145.298 44.0656C145.286 44.3618 145.215 44.6526 145.088 44.9206C143.61 48.1594 141.869 51.272 139.884 54.2271C138.405 56.2067 136.446 57.7762 134.192 58.7867C132.97 62.1698 131.316 65.381 129.272 68.3407C127.063 71.5646 124.321 74.3895 121.166 76.6949C117.911 79.0597 114.679 80.242 111.469 80.242ZM106.302 76.14C106.302 77.9298 107.459 78.8272 109.774 78.8322C111.388 78.7687 112.969 78.3568 114.409 77.6248C115.916 76.9463 117.35 76.1172 118.691 75.15C121.081 73.1096 123.218 70.7909 125.058 68.2432C126.672 66.0238 128.026 63.6257 129.092 61.0964L126.617 61.9439C119.253 64.4936 114.061 66.7584 111.041 68.7382C108.965 70.0274 107.411 72.0089 106.654 74.3326C106.443 74.9181 106.324 75.5329 106.302 76.1549V76.14Z" fill="white"/>
<path d="M147.21 46.9979C146.536 48.7088 146.205 50.5359 146.236 52.3748C146.175 53.4935 146.486 54.6008 147.12 55.5245C147.717 56.3011 148.655 56.7378 149.633 56.6944C153.922 56.6944 157.814 52.6598 161.309 44.5906C161.639 43.8407 162.059 43.5032 162.516 43.6007C162.687 43.6276 162.808 43.7812 162.794 43.9532C162.353 45.2388 161.821 46.4918 161.204 47.7028C160.329 49.6611 159.246 51.5191 157.972 53.2447C155.562 56.5494 152.59 58.2017 149.055 58.2017C147.27 58.2425 145.541 57.5799 144.241 56.3569C142.885 55.0472 142.163 53.2148 142.261 51.3324C142.302 49.0047 142.812 46.7091 143.761 44.5831C144.799 42.1691 146.197 39.9263 147.908 37.9313C149.518 35.9723 151.576 34.4292 153.907 33.4317C154.884 32.9818 155.944 32.7392 157.019 32.7193C158.004 32.7185 158.965 33.0137 159.779 33.5667C160.499 34.074 160.944 34.8847 160.987 35.764C160.987 38.5987 159.287 41.3109 155.887 43.9007C154.551 44.8527 153.069 45.5821 151.5 46.0604C150.124 46.5828 148.679 46.8987 147.21 46.9979ZM159.104 35.674C159.104 34.7291 158.722 34.2566 157.972 34.2566C156.642 34.2566 154.642 35.8839 151.972 39.1386C150.327 41.1982 148.906 43.4282 147.735 45.7905C148.941 45.698 150.123 45.4119 151.238 44.9431C152.691 44.4274 154.046 43.6665 155.242 42.6933C157.817 40.4635 159.104 38.1237 159.104 35.674Z" fill="white"/>
<path d="M237.381 54.5721C237.381 59.0716 239.196 61.3214 242.826 61.3214C246.221 61.3214 250.42 59.3216 255.425 55.322C260.899 50.9825 264.649 46.4054 266.674 41.5909C268.983 36.1714 270.138 31.5469 270.138 27.7173C270.138 23.8876 269.373 21.0104 267.844 19.0856C266.321 17.1552 263.963 16.0751 261.507 16.1834C260.867 16.184 260.227 16.2316 259.594 16.3259C258.774 16.5553 257.932 16.6961 257.082 16.7458C256.542 16.7458 256.265 16.6034 256.265 16.3259C256.265 15.8984 256.707 15.501 257.577 15.1185C258.196 14.8102 258.868 14.6195 259.557 14.5561L261.649 14.5561C264.437 14.5973 267.096 15.7405 269.043 17.7357C271.288 19.8655 272.738 22.9802 273.393 27.0798C273.538 28.0883 273.611 29.1057 273.61 30.1245C273.493 34.1967 272.655 38.2159 271.136 41.9958C268.688 48.0212 264.547 53.2076 259.212 56.9269C253.572 61.0265 248.395 63.0788 243.681 63.0837C238.771 63.0837 235.752 60.819 234.622 56.2894C234.241 54.7141 234.072 53.095 234.119 51.4749C234.244 48.7753 234.749 46.1068 235.619 43.5482C232.655 48.3727 229.349 52.979 225.728 57.3318C223.719 59.7741 221.44 61.9805 218.933 63.9087C216.481 65.7535 214.434 66.6684 212.709 66.6684C209.354 66.6684 207.679 64.6411 207.684 60.5865C207.684 55.817 210.774 46.0954 216.953 31.4219C220.823 22.0878 222.758 15.0885 222.758 10.424C222.758 7.42427 221.85 5.31698 220.036 4.16209C218.088 2.97268 215.838 2.37113 213.556 2.42977C212.415 2.43651 211.277 2.55456 210.159 2.78223C201.805 4.48706 194.398 8.98661 187.939 16.2809C185.092 19.3724 182.835 22.9586 181.279 26.8623C180.312 29.278 179.612 31.7929 179.195 34.3616C179.03 35.9889 178.947 37.3613 178.947 38.3962C178.976 39.6332 179.178 40.86 179.547 42.0408C179.972 43.4468 180.685 44.7491 181.639 45.8655C183.479 47.9902 186.049 49.0501 189.349 49.0451C194.823 49.0451 199.165 46.1904 202.375 40.481C204.025 37.5563 204.85 34.9141 204.85 32.5543C204.85 28.6922 203.132 26.7499 199.683 26.7499C198.971 26.7656 198.261 26.8383 197.56 26.9673C196.713 27.1098 196.308 27.0123 196.361 26.6824C196.413 26.3524 197.043 25.9999 198.273 25.6175C199.463 25.2478 200.701 25.0582 201.948 25.055C204.131 24.9118 206.21 26.0037 207.332 27.8822C208.06 29.1517 208.425 30.5965 208.389 32.0593C208.313 33.9941 207.857 35.8949 207.047 37.6538C204.637 43.1532 200.32 47.2103 194.096 49.8251C192.649 50.4894 191.082 50.8517 189.491 50.89C184.872 50.89 181.192 49.2376 178.452 45.9329C176.399 43.4238 175.109 40.3789 174.733 37.1588C174.639 36.4301 174.591 35.6962 174.59 34.9615C174.678 31.5711 175.462 28.2349 176.893 25.16C178.461 21.5889 180.573 18.2825 183.154 15.3585C185.672 12.4487 188.579 9.89991 191.794 7.78422C194.895 5.76204 198.191 4.05616 201.633 2.69223C204.806 1.40304 208.189 0.706596 211.614 0.637441C214.462 0.599683 217.292 1.07994 219.968 2.0548C224.498 4.0546 226.763 7.85173 226.763 13.4462C226.763 18.0757 225.183 23.9751 222.023 31.1444C219.848 36.0039 217.771 41.2159 215.791 46.7804C212.966 54.7046 211.552 59.8716 211.547 62.2813C211.547 63.9837 212.131 64.8311 213.316 64.8311C214.112 64.7622 214.871 64.4682 215.506 63.9837C218.056 62.4838 220.841 59.6291 223.86 55.4195C226.88 51.2099 230.017 46.3254 233.272 40.766C236.527 35.2015 238.839 31.4744 240.209 29.5846C241.579 27.6948 242.751 26.7499 243.726 26.7499C244.241 26.738 244.731 26.9684 245.051 27.3721C245.371 27.7758 245.483 28.3062 245.353 28.8047C245.367 29.6704 245.235 30.5323 244.963 31.3544C244.708 32.1043 243.463 35.104 241.319 40.3535C239.174 45.603 237.944 49.0826 237.711 50.7625C237.517 52.0236 237.407 53.2963 237.381 54.5721L237.381 54.5721Z" fill="white"/>
<path d="M292.868 44.4856C291.661 46.6112 290.721 48.8782 290.071 51.2349C289.801 52.422 289.648 53.6327 289.614 54.8496C289.614 55.7645 289.966 56.2295 290.671 56.2295C291.571 56.2295 292.681 55.402 294.001 53.7472C296.248 50.8286 298.17 47.6726 299.73 44.3356C299.918 43.9082 300.135 43.6757 300.368 43.6307C300.743 43.4882 300.938 43.6307 300.938 44.0506C300.922 44.3472 300.848 44.6377 300.72 44.9056C296.376 53.6797 292.721 58.0668 289.756 58.0668C288.37 58.0593 287.096 57.3018 286.427 56.087C285.962 55.2171 285.741 54.2374 285.789 53.2523C285.833 51.7876 286.07 50.3352 286.494 48.9327C282.724 55.0221 279.475 58.0668 276.745 58.0668C276 58.0716 275.275 57.8231 274.69 57.3618C273.273 56.3644 272.568 54.6696 272.568 52.2623C272.568 47.6328 274.568 42.9383 278.567 38.1787C280.724 35.5994 283.653 33.7825 286.922 32.9968C287.753 32.7716 288.61 32.6532 289.471 32.6443C291.543 32.5995 293.541 33.4138 294.991 34.8941C295.43 35.2572 295.598 35.8553 295.411 36.3939C295.222 36.8692 294.698 37.1179 294.211 36.9638C293.865 35.3903 292.421 34.3061 290.814 34.4141C288.779 34.4141 286.279 36.0189 283.314 39.2286C281.499 41.27 279.908 43.5 278.567 45.8805C276.728 48.9502 275.808 51.4024 275.808 53.2372C275.808 55.0821 276.4 55.997 277.578 55.997C280.412 55.997 284.117 51.6574 288.691 42.9782C289.281 41.6921 290.037 40.4894 290.941 39.4011C291.548 38.7667 292.396 38.4204 293.273 38.4487C293.762 38.4878 294.248 38.5579 294.728 38.6587C295.295 38.7966 295.884 38.8195 296.461 38.7262C295.626 39.5711 294.428 41.4909 292.868 44.4856Z" fill="white"/>
<path d="M305.82 56.5519C306.241 56.6247 306.667 56.6723 307.095 56.6944C308.977 56.6944 310.844 55.5845 312.682 53.3647C313.681 52.1348 315.451 49.0451 317.991 44.0956C318.058 43.8804 318.261 43.7363 318.486 43.7431C318.913 43.6907 319.123 43.8556 319.123 44.2381C319.054 44.5205 318.948 44.7927 318.809 45.048C318.591 45.498 318.388 45.9479 318.201 46.3904C318.014 46.8328 317.706 47.4928 317.286 48.3402C316.866 49.1876 316.491 49.8401 316.184 50.395C315.876 50.9499 315.494 51.5499 315.021 52.2998C314.634 52.9533 314.157 53.5491 313.604 54.0696L312.104 55.6295C311.315 56.4232 310.341 57.0082 309.269 57.3318C307.625 57.8918 305.849 57.9388 304.177 57.4668C303.271 57.9113 302.283 58.1665 301.275 58.2167C297.925 58.2167 295.896 56.8943 295.186 54.2496C295.031 53.5101 294.96 52.7553 294.976 51.9998C294.994 51.089 295.31 50.2093 295.876 49.4951C296.279 48.8112 296.966 48.3435 297.751 48.2202C300.155 43.6457 302.208 39.5161 303.908 35.8314C305.797 31.8318 307.992 29.832 310.492 29.832C311.166 29.8369 311.83 29.996 312.434 30.297C313.072 30.6045 313.312 30.9419 313.146 31.3169C312.981 31.6918 312.637 31.7668 312.119 31.5344C311.699 31.3222 311.239 31.202 310.769 31.1819C310.427 31.1734 310.088 31.2453 309.779 31.3919C308.174 32.1518 307.372 33.7791 307.372 36.2739C307.336 37.3864 307.53 38.4944 307.942 39.5286C308.317 40.376 308.744 41.2984 309.217 42.2883C310.149 44.1616 310.702 46.2003 310.844 48.2877C310.812 49.9349 310.289 51.5352 309.344 52.8847C308.416 54.3227 307.22 55.5678 305.82 56.5519ZM298.103 54.1446C298.105 54.4533 298.127 54.7614 298.171 55.067C298.443 56.2737 299.562 57.0957 300.795 56.9943C301.287 57.007 301.775 56.9043 302.22 56.6944C300.48 55.6095 299.538 53.8397 299.393 51.3849C298.603 52.0892 298.137 53.0868 298.103 54.1446ZM303.413 56.0569C305.492 54.4521 306.53 51.8573 306.525 48.2727C306.481 46.2648 306.315 44.2613 306.03 42.2733C305.774 40.5609 305.609 38.8362 305.535 37.1063C305.52 36.4929 305.545 35.8792 305.61 35.269C302.02 42.4383 299.8 46.8028 298.95 48.3627C299.948 48.3627 300.45 49.0676 300.45 50.485C300.445 53.2497 301.433 55.107 303.413 56.0569Z" fill="white"/>
<path d="M330.447 54.7446C330.447 56.0719 330.92 56.7319 331.865 56.7319C334.099 56.7069 337.237 52.5448 341.276 44.2456C341.606 43.5857 341.899 43.3232 342.161 43.4957C342.39 43.5901 342.543 43.8102 342.551 44.0581C342.377 44.7662 342.101 45.4456 341.734 46.0754C341.194 47.1853 340.651 48.2477 340.106 49.2626C339.561 50.2775 338.771 51.6049 337.737 53.2447C335.572 56.5494 333.259 58.2017 330.8 58.2017C329.262 58.242 327.813 57.4847 326.968 56.1994C326.504 55.4464 326.282 54.57 326.33 53.6872C326.373 52.3721 326.61 51.0705 327.035 49.8251C327.505 48.3252 328.802 45.873 330.927 42.4683C331.342 41.8694 331.6 41.1757 331.677 40.451C331.677 39.956 331.272 39.7011 330.477 39.7011C329.682 39.7011 328.138 40.7585 325.873 42.8807C322.473 46.0004 319.171 50.6725 315.966 56.8969C315.636 57.6018 314.759 57.9543 313.349 57.9543C312.528 57.9602 311.714 58.1047 310.942 58.3817C319.906 39.7436 326.393 26.7449 330.402 19.3856C331.03 18.1252 331.827 16.9569 332.772 15.9134C333.42 15.2677 334.302 14.9107 335.217 14.9235C335.72 14.9529 336.221 15.013 336.717 15.1035C337.277 15.2111 337.849 15.2464 338.419 15.2085C337.004 16.6683 334.467 20.7154 330.807 27.3498C327.148 33.9841 323.648 40.7185 320.308 47.5528C322.115 45.2132 324.123 43.0352 326.308 41.0434C328.298 39.3345 330.471 37.8507 332.787 36.6189C335.329 35.224 337.197 34.5341 338.374 34.5341C338.63 34.5347 338.884 34.5804 339.124 34.6691C333.339 44.873 330.447 51.5649 330.447 54.7446Z" fill="white"/>
<path d="M344.103 56.3344C345.183 56.2572 346.194 55.7782 346.938 54.992C348.688 53.2472 350.905 49.685 353.59 44.3056C353.92 43.6007 354.25 43.3832 354.58 43.6682C354.687 43.7955 354.738 43.9602 354.722 44.1256C354.612 44.6704 354.423 45.196 354.16 45.6855L353.132 47.9352C352.828 48.6002 352.238 49.6751 351.363 51.1599C350.677 52.3732 349.884 53.5227 348.993 54.5946C347.058 56.8044 345.228 57.9118 343.503 57.9167C341.786 57.9167 340.541 57.3993 339.791 56.3569C339.046 55.3563 338.648 54.1397 338.659 52.8923C338.695 51.4543 339.006 50.0366 339.574 48.7152L344.073 37.1813C344.187 36.797 344.235 36.3966 344.216 35.9964C344.128 35.3096 343.832 34.6661 343.368 34.1516L347.261 34.0841C348.348 34.0841 348.985 34.2866 349.173 34.684C349.36 35.0815 349.218 35.7114 348.745 36.5589L343.084 49.795C342.369 51.193 341.96 52.7267 341.884 54.2946C341.914 55.652 342.641 56.3344 344.103 56.3344ZM351.04 30.3645C350.439 30.9059 349.66 31.2075 348.85 31.2119C348.116 31.2412 347.41 30.9282 346.938 30.3645C346.465 29.7915 346.258 29.0444 346.368 28.3097C346.513 27.5008 346.941 26.7699 347.576 26.2474C348.177 25.706 348.956 25.4044 349.765 25.4C350.51 25.3757 351.225 25.6868 351.715 26.2474C352.21 26.8083 352.408 27.5715 352.248 28.3022C352.102 29.111 351.674 29.842 351.04 30.3645Z" fill="white"/>
<path d="M375.038 34.6766C369.234 44.8756 366.331 51.5299 366.331 54.6396C366.331 55.8695 366.781 56.4769 367.674 56.4769C370.083 56.4769 373.316 52.3973 377.37 44.2381C377.655 43.5782 377.94 43.3157 378.218 43.4882C378.46 43.5723 378.629 43.7941 378.645 44.0506C378.623 44.355 378.525 44.6491 378.36 44.9056C375.86 49.9501 373.751 53.4297 372.031 55.3445C370.306 57.2493 368.581 58.2092 366.864 58.2092C365.301 58.2717 363.82 57.5086 362.964 56.1995C362.455 55.4642 362.204 54.5804 362.252 53.6872C362.298 52.3718 362.538 51.0703 362.964 49.8251C363.434 48.3252 364.731 45.873 366.856 42.4683C367.272 41.8694 367.529 41.1757 367.606 40.451C367.606 39.9561 367.201 39.7011 366.399 39.7011C365.596 39.7011 364.067 40.7585 361.802 42.8808C358.407 46.0005 355.127 50.6725 351.963 56.8969C351.76 57.2952 351.423 57.6087 351.01 57.7818C350.325 57.9449 349.623 58.0279 348.918 58.0293C348.217 58.0106 347.518 58.1304 346.863 58.3817C347.623 56.8819 349.123 53.7922 351.363 49.1126C355.307 40.8685 357.89 36.1514 359.109 34.9615C359.746 34.3691 360.596 34.0628 361.464 34.1141C361.951 34.1534 362.434 34.2235 362.912 34.3241C363.479 34.4597 364.067 34.4851 364.644 34.3991C362.904 35.344 360.049 39.7786 356.08 47.7028C357.925 45.3677 359.948 43.1789 362.132 41.1559C364.136 39.4122 366.332 37.9026 368.679 36.6564C371.228 35.2615 373.088 34.5716 374.273 34.5716C374.532 34.5608 374.791 34.5964 375.038 34.6766Z" fill="white"/>
<path d="M372.488 80.2421C368.059 80.2421 365.841 78.4272 365.836 74.7976C365.836 71.7979 367.889 69.0832 371.993 66.6534C376.247 64.2954 380.73 62.3757 385.372 60.924C387.872 60.1191 389.686 59.4816 390.816 59.0117C392.081 55.2192 392.704 51.2427 392.661 47.2453C392.676 46.6073 392.628 45.9693 392.519 45.3405C391.017 48.2862 389.188 51.0534 387.067 53.5897C384.332 56.9844 381.62 58.3042 378.93 57.5493C376.475 56.5144 375.248 54.4871 375.248 51.4674C375.248 47.4128 377.278 42.9533 381.337 38.0887C383.307 35.6016 386.044 33.8352 389.122 33.0642C389.902 32.8299 390.713 32.7112 391.529 32.7118C393.774 32.7509 395.951 33.4931 397.753 34.834C398.503 35.449 398.885 35.9664 398.885 36.3864C398.877 36.8347 398.731 37.2695 398.466 37.6313C398.181 38.0287 397.881 38.0737 397.581 37.7663C397.314 37.5234 397.107 37.2235 396.973 36.8889C396.366 35.1415 395.368 34.2641 393.973 34.2641C391.474 34.2641 388.667 36.0139 385.552 39.5136C383.833 41.4719 382.324 43.606 381.052 45.8805C379.492 48.7502 378.713 50.955 378.713 52.4948C378.713 53.9947 379.185 55.0521 380.13 55.577C380.443 55.7109 380.779 55.7823 381.12 55.787C382.21 55.787 383.567 55.0371 385.192 53.5372C386.949 51.8695 388.464 49.9636 389.691 47.8753C390.781 46.202 391.672 44.4076 392.346 42.5283C392.721 41.2534 393.186 40.451 393.726 40.121C394.273 39.7883 394.894 39.5951 395.533 39.5586C396.004 39.5626 396.468 39.4409 396.876 39.2061C397.28 41.6849 397.468 44.1941 397.438 46.7054C397.37 50.0069 396.865 53.285 395.938 56.4544C397.679 55.2962 399.241 53.8888 400.573 52.2773C401.386 51.2231 402.121 50.1101 402.77 48.9477C403.31 47.9578 403.798 46.9829 404.218 46.0155C404.637 45.048 404.93 44.4181 405.072 44.1406C405.207 43.8591 405.47 43.6606 405.777 43.6082C406.107 43.5332 406.272 43.6907 406.272 44.0656C406.26 44.3618 406.189 44.6526 406.062 44.9206C404.584 48.1594 402.843 51.272 400.858 54.2271C399.375 56.2055 397.414 57.7744 395.158 58.7867C393.939 62.1696 392.288 65.3808 390.246 68.3407C388.037 71.5646 385.296 74.3895 382.14 76.6949C378.915 79.0597 375.698 80.2421 372.488 80.2421ZM367.321 76.14C367.321 77.9298 368.476 78.8272 370.786 78.8322C372.402 78.7698 373.986 78.3579 375.428 77.6248C376.935 76.9464 378.37 76.1172 379.71 75.1501C382.098 73.1076 384.235 70.7891 386.077 68.2432C387.692 66.0238 389.045 63.6257 390.111 61.0965L387.637 61.9439C380.272 64.4936 375.08 66.7584 372.061 68.7382C369.984 70.0275 368.431 72.0089 367.674 74.3326C367.462 74.9181 367.343 75.5329 367.321 76.1549L367.321 76.14Z" fill="white"/>
<path d="M403.347 52.2323C403.347 48.3177 405.235 41.7584 409.009 32.5543H405.327C405.097 32.5637 404.897 32.3938 404.87 32.1643C404.801 31.9145 404.824 31.6478 404.938 31.4144C405.012 31.183 405.227 31.0257 405.47 31.0244L409.715 31.0244C411.414 27.2948 412.994 24.1801 414.454 21.6804C415.914 19.1806 417.249 17.4858 418.459 16.5959C419.688 15.7259 420.574 15.291 421.113 15.291C421.508 15.2715 421.903 15.3171 422.284 15.426C423.373 15.9259 423.916 17.0008 423.911 18.6507C423.798 20.7144 423.243 22.7297 422.284 24.5601C421.199 26.8698 420.136 29.0171 419.096 31.0019H422.493C422.725 30.9956 422.924 31.163 422.958 31.3919C423.021 31.643 422.995 31.9082 422.883 32.1418C422.809 32.3732 422.594 32.5305 422.351 32.5318L418.249 32.5318C415.714 36.8758 412.552 40.8227 408.867 44.2456L407.21 51.4524C407.069 52.0446 406.996 52.651 406.992 53.2597C407.004 53.894 407.174 54.5153 407.487 55.067C407.782 55.6524 408.393 56.0105 409.047 55.982C410.003 55.9352 410.93 55.6434 411.739 55.1346C414.004 53.4347 416.504 49.8726 419.239 44.4481C419.356 44.119 419.599 43.8496 419.914 43.6982C420.169 43.6082 420.326 43.6982 420.371 43.8782C420.392 44.2331 420.32 44.5874 420.161 44.9056C419.074 47.2872 417.844 49.6012 416.479 51.8349C413.929 55.9445 411.217 57.9968 408.342 57.9918C406.953 58.0266 405.623 57.4279 404.728 56.3644C403.77 55.2065 403.278 53.7333 403.347 52.2323ZM416.652 32.5543H413.322C412.747 33.8841 411.474 37.0313 409.505 41.9958C412.225 39.1191 414.621 35.953 416.652 32.5543ZM417.574 31.0019C420.688 25.4275 422.246 21.5579 422.246 19.3931C422.246 18.4482 422.073 17.9757 421.751 17.9757C421.226 17.9757 420.438 18.7257 419.374 20.2255C418.309 21.7254 416.531 25.325 414.034 30.9869L417.574 31.0019Z" fill="white"/>
<path d="M432.152 33.1242C435.592 33.1242 437.314 35.294 437.319 39.6336C437.266 41.8461 436.734 44.0208 435.759 46.0079C434.373 49.1702 432.349 52.0119 429.812 54.3546C430.427 55.5395 431.537 56.1244 433.142 56.1244C434.567 56.0485 435.887 55.349 436.749 54.2121C437.923 53.0617 438.947 51.7664 439.794 50.3575C440.409 49.2476 440.859 48.4377 441.136 47.9127C441.413 47.3878 441.789 46.6529 442.239 45.663C442.688 44.6731 442.988 44.1031 443.048 43.8931C443.13 43.6943 443.328 43.5683 443.543 43.5782C444.016 43.5257 444.256 43.6907 444.256 44.0731C444.245 44.2465 444.196 44.4154 444.113 44.5681L443.686 45.558C443.408 46.2179 443.191 46.6904 443.048 46.9753C442.906 47.2603 442.659 47.7253 442.298 48.4752C441.939 49.2251 441.639 49.7801 441.376 50.2075C441.114 50.635 440.769 51.1974 440.319 51.9023C439.954 52.4939 439.553 53.0624 439.119 53.6047C438.759 54.0246 438.324 54.4971 437.807 55.022C437.357 55.4811 436.853 55.884 436.307 56.2219C435.313 56.8701 434.163 57.238 432.977 57.2868C431.277 57.3705 429.629 56.6945 428.477 55.442C426.31 57.0468 424.3 57.8493 422.478 57.8493C419.033 57.8493 417.311 55.6795 417.311 51.3399C417.365 49.1274 417.896 46.9527 418.871 44.9655C420.227 41.7514 422.276 38.8759 424.87 36.5439C427.415 34.2641 429.842 33.1242 432.152 33.1242ZM432.902 35.314C431.627 35.314 430.112 36.1689 428.402 37.8637C426.433 39.8746 424.842 42.2245 423.708 44.8005C422.05 48.1977 421.233 50.9799 421.233 53.1547C421.233 55.3295 422.05 56.4094 423.708 56.4094C424.888 56.4094 426.208 55.772 427.667 54.4971C426.94 53.4876 426.544 52.2768 426.535 51.0324C426.65 49.0076 427.485 47.9952 429.04 47.9952C429.607 47.9864 430.152 48.2179 430.54 48.6327C430.878 48.9312 431.092 49.3461 431.139 49.7951C431.135 50.1668 431.087 50.5368 430.997 50.8975C432.035 49.2899 432.957 47.6109 433.757 45.8729C434.882 43.6803 435.488 41.258 435.527 38.7936C435.549 36.4764 434.672 35.314 432.932 35.314H432.902Z" fill="white"/>
<path d="M464.354 34.6765C458.55 44.8755 455.647 51.5299 455.647 54.6396C455.647 55.8694 456.097 56.4769 456.99 56.4769C459.4 56.4769 462.632 52.3973 466.686 44.2381C466.971 43.5781 467.256 43.3157 467.541 43.4882C467.78 43.5764 467.944 43.7967 467.961 44.0506C467.943 44.3545 467.847 44.6488 467.684 44.9055C465.184 49.95 463.072 53.4297 461.347 55.3445C459.622 57.2493 457.905 58.2092 456.18 58.2092C454.613 58.2874 453.12 57.5354 452.25 56.2294C451.744 55.4931 451.495 54.6095 451.545 53.7172C451.588 52.402 451.826 51.1005 452.25 49.855C452.725 48.3552 454.022 45.9029 456.142 42.4983C456.558 41.8994 456.816 41.2057 456.892 40.481C456.892 39.986 456.487 39.731 455.693 39.731C454.898 39.731 453.353 40.7884 451.088 42.9107C447.693 46.0304 444.413 50.7025 441.249 56.9268C441.048 57.3268 440.71 57.641 440.297 57.8118C439.611 57.9759 438.909 58.0589 438.204 58.0592C437.505 58.0392 436.809 58.159 436.157 58.4117C436.907 56.9118 438.392 53.8221 440.611 49.1426C444.601 40.8784 447.216 36.1514 448.456 34.9615C449.089 34.3736 449.933 34.0678 450.795 34.1141C451.282 34.1528 451.766 34.223 452.243 34.3241C452.813 34.4597 453.403 34.4851 453.983 34.3991C452.233 35.344 449.378 39.7785 445.419 47.7027C447.255 45.3646 449.273 43.1755 451.455 41.1559C453.458 39.4105 455.655 37.9007 458.002 36.6563C460.544 35.2615 462.412 34.5715 463.589 34.5715C463.848 34.5608 464.107 34.5964 464.354 34.6765Z" fill="white"/>
<path d="M542.556 54.5721C542.556 59.0717 544.374 61.3214 548.008 61.3214C551.403 61.3214 555.602 59.3216 560.607 55.322C566.107 50.9825 569.856 46.4054 571.856 41.5909C574.166 36.1714 575.32 31.5469 575.32 27.7173C575.32 23.8876 574.553 21.0104 573.018 19.0856C571.499 17.1554 569.143 16.0751 566.689 16.1834C566.049 16.184 565.41 16.2316 564.777 16.3259C563.957 16.5553 563.114 16.6961 562.264 16.7458C561.724 16.7458 561.447 16.6034 561.447 16.3259C561.447 15.8984 561.889 15.501 562.759 15.1185C563.379 14.8102 564.05 14.6195 564.739 14.5561L566.831 14.5561C569.619 14.5973 572.278 15.7405 574.226 17.7358C576.471 19.8655 577.92 22.9802 578.575 27.0798C578.72 28.0883 578.793 29.1057 578.793 30.1245C578.672 34.1963 577.834 38.2149 576.318 41.9959C573.871 48.0212 569.729 53.2076 564.394 56.9269C558.755 61.0265 553.575 63.0788 548.856 63.0838C543.951 63.0838 540.931 60.819 539.797 56.2894C539.422 54.7131 539.256 53.0945 539.302 51.4749C539.423 48.7749 539.928 46.1059 540.802 43.5482C537.831 48.3812 534.518 52.9951 530.888 57.3543C528.875 59.7931 526.596 61.9991 524.093 63.9312C521.641 65.776 519.594 66.6909 517.869 66.6909C514.519 66.6909 512.844 64.6636 512.844 60.609C512.844 55.8395 515.934 46.118 522.113 31.4444C525.983 22.1103 527.918 15.111 527.918 10.4465C527.918 7.44678 527.01 5.33949 525.188 4.1846C523.243 2.9942 520.995 2.39252 518.716 2.45227C517.575 2.45902 516.437 2.57707 515.319 2.80474C506.965 4.50957 499.558 9.00912 493.099 16.3034C490.252 19.3949 487.995 22.981 486.439 26.8848C485.471 29.3005 484.772 31.8154 484.354 34.3841C484.19 36.0115 484.107 37.3838 484.107 38.4187C484.136 39.6557 484.337 40.8825 484.707 42.0634C485.126 43.4719 485.839 44.7755 486.799 45.888C488.639 48.0128 491.209 49.0727 494.508 49.0677C500.008 49.0677 504.35 46.2129 507.535 40.5035C509.185 37.5788 510.01 34.9366 510.01 32.5768C510.01 28.7147 508.285 26.7724 504.842 26.7724C504.13 26.7881 503.421 26.8608 502.72 26.9899C501.873 27.1323 501.468 27.0348 501.52 26.7049C501.573 26.3749 502.203 26.0224 503.425 25.64C504.618 25.2703 505.859 25.0808 507.107 25.0775C509.288 24.9354 511.365 26.0274 512.484 27.9048C513.218 29.1722 513.586 30.6179 513.549 32.0819C513.467 34.0094 513.009 35.9023 512.199 37.6538C509.79 43.1532 505.472 47.2103 499.248 49.8251C497.802 50.4894 496.235 50.8517 494.644 50.89C490.014 50.89 486.334 49.2376 483.605 45.933C481.573 43.4177 480.306 40.3726 479.952 37.1588C479.859 36.4301 479.811 35.6962 479.81 34.9615C479.898 31.5711 480.681 28.2349 482.112 25.16C483.681 21.5889 485.793 18.2825 488.374 15.3585C490.89 12.4469 493.798 9.89791 497.013 7.78422C500.112 5.7634 503.406 4.05758 506.845 2.69224C510.009 1.40742 513.382 0.711083 516.796 0.637441C519.644 0.599681 522.475 1.07994 525.151 2.05479C529.68 4.0546 531.945 7.85173 531.945 13.4462C531.945 18.0757 530.365 23.9751 527.205 31.1444C525.031 36.0039 522.953 41.2159 520.973 46.7804C518.124 54.7096 516.699 59.8766 516.699 62.2813C516.699 63.9837 517.284 64.8311 518.469 64.8311C519.264 64.7622 520.024 64.4682 520.659 63.9837C523.208 62.4838 525.993 59.6291 529.013 55.4195C532.032 51.2099 535.177 46.3254 538.447 40.766C541.701 35.2015 544.014 31.4744 545.383 29.5846C546.748 27.6948 547.933 26.7499 548.923 26.7499C549.438 26.738 549.929 26.9684 550.248 27.3721C550.568 27.7759 550.68 28.3062 550.55 28.8047C550.564 29.6704 550.432 30.5323 550.16 31.3544C549.901 32.1143 548.686 35.114 546.516 40.3535C544.346 45.593 543.156 49.0702 542.946 50.785C542.734 52.0375 542.603 53.3026 542.556 54.5721V54.5721Z" fill="white"/>
<path d="M593.026 33.1242C596.466 33.1242 598.188 35.294 598.193 39.6336C598.136 41.8456 597.604 44.0195 596.633 46.0079C595.245 49.1687 593.22 52.0099 590.686 54.3546C591.301 55.5395 592.411 56.1244 594.016 56.1244C595.441 56.0485 596.761 55.349 597.623 54.2121C598.806 53.0631 599.836 51.7677 600.691 50.3575C601.305 49.2476 601.748 48.4377 602.033 47.9127C602.318 47.3878 602.685 46.6529 603.128 45.663L603.945 43.8931C604.025 43.6927 604.225 43.5659 604.44 43.5782C604.912 43.5257 605.145 43.6907 605.145 44.0731C605.137 44.2461 605.091 44.4151 605.01 44.5681L604.582 45.558C604.298 46.2179 604.088 46.6904 603.945 46.9753C603.803 47.2603 603.555 47.7253 603.195 48.4752C602.835 49.2251 602.535 49.7801 602.273 50.2075C602.01 50.635 601.658 51.1974 601.216 51.9023C600.848 52.4942 600.445 53.0627 600.008 53.6047C599.653 54.0246 599.218 54.4971 598.703 55.022C598.252 55.479 597.748 55.8817 597.203 56.2219C596.213 56.8708 595.064 57.2388 593.881 57.2868C592.181 57.3726 590.532 56.6963 589.381 55.442C587.207 57.0468 585.207 57.8493 583.382 57.8493C579.932 57.8493 578.21 55.6795 578.215 51.3399C578.25 49.144 578.754 46.981 579.692 44.9955C581.052 41.7831 583.1 38.9082 585.692 36.5739C588.272 34.2741 590.717 33.1242 593.026 33.1242ZM593.776 35.314C592.501 35.314 590.994 36.1689 589.277 37.8637C587.317 39.8784 585.735 42.2278 584.605 44.8005C582.955 48.1952 582.13 50.9799 582.13 53.1547C582.13 55.3295 582.955 56.4144 584.605 56.4094C585.79 56.4094 587.112 55.772 588.572 54.4971C587.841 53.489 587.445 52.2773 587.439 51.0324C587.529 49.0001 588.362 47.9877 589.914 47.9877C590.482 47.976 591.028 48.208 591.414 48.6252C591.756 48.9213 591.97 49.3375 592.014 49.7876C592.012 50.159 591.967 50.529 591.879 50.89C592.913 49.2807 593.835 47.6018 594.639 45.8655C595.764 43.6728 596.37 41.2505 596.408 38.7861C596.423 36.4764 595.546 35.314 593.799 35.314H593.776Z" fill="white"/>
<path d="M616.731 33.1242C620.176 33.1242 621.899 35.294 621.899 39.6336C621.845 41.8461 621.313 44.0208 620.339 46.0079C618.953 49.1684 616.931 52.0096 614.399 54.3546C615.006 55.5395 616.116 56.1244 617.721 56.1244C619.149 56.0497 620.471 55.3502 621.336 54.2121C622.508 53.0618 623.529 51.7665 624.373 50.3575C624.988 49.2476 625.438 48.4377 625.723 47.9127C626.008 47.3878 626.368 46.6529 626.818 45.663L627.635 43.8931C627.714 43.6911 627.914 43.5635 628.13 43.5782C628.595 43.5257 628.835 43.6907 628.835 44.0731C628.828 44.2471 628.779 44.4168 628.693 44.5681L628.265 45.558C627.988 46.2179 627.77 46.6904 627.635 46.9753C627.5 47.2603 627.245 47.7253 626.885 48.4752C626.525 49.2251 626.218 49.7801 625.963 50.2075C625.708 50.635 625.348 51.1974 624.898 51.9023C624.534 52.4939 624.133 53.0624 623.698 53.6047C623.346 54.0246 622.903 54.4971 622.386 55.022C621.936 55.4812 621.433 55.8841 620.886 56.2219C619.893 56.8721 618.742 57.2402 617.556 57.2868C615.857 57.3705 614.208 56.6945 613.057 55.442C610.887 57.0468 608.887 57.8493 607.057 57.8493C603.618 57.8493 601.896 55.6795 601.89 51.3399C601.944 49.1274 602.476 46.9527 603.45 44.9655C604.809 41.7529 606.857 38.8779 609.45 36.5439C611.99 34.2641 614.417 33.1242 616.731 33.1242ZM617.481 35.314C616.207 35.314 614.699 36.1689 612.982 37.8637C611.02 39.8765 609.438 42.2263 608.31 44.8006C606.66 48.1952 605.835 50.9799 605.835 53.1547C605.835 55.3295 606.66 56.4144 608.31 56.4094C609.49 56.4094 610.812 55.772 612.277 54.4971C611.547 53.489 611.15 52.2773 611.145 51.0324C611.234 49.0026 612.059 47.9877 613.619 47.9877C614.187 47.9779 614.732 48.2096 615.119 48.6252C615.458 48.9237 615.672 49.3386 615.719 49.7876C615.718 50.1596 615.67 50.53 615.577 50.89C616.617 49.2841 617.539 47.6048 618.336 45.8655C619.462 43.6728 620.067 41.2505 620.106 38.7861C620.128 36.4764 619.259 35.314 617.511 35.314H617.481Z" fill="white"/>
<path d="M642.491 53.7922C642.491 55.292 643.106 56.042 644.336 56.042C646.546 56.042 649.493 52.3373 653.178 44.9281C653.32 44.6431 653.455 44.3581 653.568 44.0806C653.666 43.8173 653.874 43.6096 654.138 43.5107C654.393 43.4207 654.573 43.5107 654.67 43.6907C654.746 44.0392 654.696 44.4035 654.528 44.7181C650.748 53.5022 646.926 57.8943 643.061 57.8943C641.817 57.9117 640.657 57.2662 640.017 56.1994C639.308 55.2171 638.913 54.0433 638.884 52.8323C638.878 51.7969 638.996 50.7645 639.237 49.7576C636.497 54.2871 634.137 56.8569 632.157 57.4668C631.635 57.6979 631.071 57.8203 630.5 57.8268C629.96 57.8265 629.423 57.7533 628.903 57.6093C626.593 56.9944 625.438 55.157 625.438 52.0898C625.508 49.7077 626.048 47.3629 627.028 45.1905C628.153 42.5602 629.67 40.1153 631.527 37.9388C633.333 35.7061 635.776 34.0765 638.532 33.2667C639.665 32.9158 640.848 32.7487 642.034 32.7718C643.614 32.8318 645.157 33.269 646.533 34.0467C649.743 28.0022 652.493 22.4103 654.783 17.2708C655.168 16.1219 655.839 15.0897 656.733 14.2711C657.238 13.8686 657.857 13.6328 658.502 13.5962H659.492C659.605 13.5962 660.055 13.6562 660.834 13.7761C661.431 13.8808 662.037 13.9161 662.642 13.8811C661.557 14.881 658.677 19.6931 654.002 28.3172C648.028 39.3511 644.429 46.7104 643.204 50.395C642.786 51.4819 642.545 52.6289 642.491 53.7922L642.491 53.7922ZM645.963 35.179C645.263 34.5313 644.328 34.1981 643.376 34.2566C642.266 34.2566 640.721 35.0815 638.742 36.7314C635.522 39.4461 632.856 42.7562 630.89 46.4804C629.52 49.0252 628.835 51.125 628.835 52.7798C628.824 53.4887 628.981 54.1902 629.293 54.8271C629.535 55.4101 630.117 55.7789 630.748 55.7495C632.352 55.7495 634.335 54.0972 636.694 50.7925C640.084 45.7721 643.179 40.5588 645.964 35.179H645.963Z" fill="white"/>
<path d="M299.07 133.892C297.885 133.892 296.296 133.787 294.661 133.644C293.026 133.502 291.346 133.442 289.854 133.442C287.926 133.442 286.239 133.494 285.047 133.592C283.854 133.689 283.067 133.742 282.872 133.742C282.623 133.761 282.401 133.585 282.361 133.338C282.322 133.092 282.479 132.856 282.722 132.797C284.141 132.482 285.583 132.284 287.034 132.204C287.874 129.677 289.464 123.783 291.046 117.783C292.546 112.039 293.918 106.392 294.466 103.37C293.014 103.294 291.571 103.094 290.154 102.77C289.907 102.728 289.741 102.495 289.782 102.249C289.824 102.002 290.057 101.836 290.304 101.877C290.604 101.877 291.639 101.93 292.981 102.027C294.323 102.125 295.898 102.177 297.24 102.177C299.025 102.177 300.908 102.08 302.692 101.93C304.477 101.78 306.157 101.735 307.394 101.735C312.351 101.735 316.319 103.985 316.319 108.814C316.319 115.106 309.674 117.063 306.502 118.031V118.128C310.169 118.878 314.084 119.868 314.084 124.675C314.084 132.602 303.975 133.892 299.07 133.892ZM298.725 132.894C303.878 132.894 308.737 130.472 308.737 125.215C308.737 119.321 302.835 118.631 299.123 118.631C297.983 118.631 296.873 118.676 295.703 118.728C294.766 122.74 293.626 127.945 292.779 132.354C294.746 132.667 296.733 132.848 298.725 132.894ZM311.362 109.309C311.362 104.307 306.9 102.725 303.63 102.725C302.4 102.798 301.175 102.946 299.963 103.167C299.52 104.802 296.79 114.814 296.048 117.536C296.94 117.588 297.833 117.633 298.725 117.633C304.725 117.633 311.362 116.493 311.362 109.309Z" fill="white"/>
<path d="M332.764 134.282C326.015 134.282 319.183 130.615 319.183 123.333C319.224 117.466 323.973 112.721 329.84 112.684C330.304 112.69 330.767 112.723 331.227 112.781C330.53 111.836 328.977 109.857 328.977 107.532C328.977 103.565 331.895 101.337 335.517 101.337C340.076 101.337 342.843 105.447 342.843 106.887C342.843 107.232 342.701 107.479 342.453 107.479C341.756 107.479 340.616 104.307 337.002 104.307C335.625 104.272 334.294 104.803 333.32 105.777C332.346 106.751 331.814 108.082 331.85 109.459C331.939 110.734 332.275 111.979 332.839 113.126C334.339 113.674 337.249 114.964 337.249 116.051C337.254 116.28 337.08 116.474 336.852 116.493C336.207 116.493 335.022 115.406 332.592 115.406C327.863 115.52 324.096 119.398 324.118 124.128C324.118 129.925 328.617 133.194 333.334 133.194C337.834 133.194 342.746 130.472 342.746 125.515C342.743 124.154 342.476 122.807 341.959 121.548H341.854C341.854 121.75 334.024 123.978 334.024 128.635C334.024 128.837 333.829 128.98 333.529 128.98C333.229 128.98 333.034 128.485 333.034 127.345C333.034 120.213 340.714 119.096 346.413 116.201C348.663 115.106 348.895 114.814 349.188 113.869C348.834 113.97 348.468 114.02 348.101 114.019C346.758 114.019 345.476 113.524 345.476 111.941C345.48 111.352 345.72 110.789 346.143 110.379C346.566 109.968 347.136 109.745 347.725 109.759C349.608 109.759 350.305 111.446 350.305 112.879C350.305 117.138 345.693 119.568 343.016 121.008C343.502 122.31 343.787 123.678 343.863 125.065C343.863 130.487 338.704 134.282 332.764 134.282Z" fill="white"/>
<path d="M365.161 133.892C363.976 133.892 362.387 133.787 360.752 133.644C359.117 133.502 357.437 133.442 355.945 133.442C354.017 133.442 352.33 133.494 351.138 133.592C349.945 133.689 349.158 133.742 348.963 133.742C348.714 133.761 348.492 133.585 348.452 133.338C348.413 133.092 348.57 132.856 348.813 132.797C350.232 132.482 351.674 132.284 353.125 132.204C353.965 129.677 355.547 123.783 357.137 117.783C358.637 112.039 360.009 106.392 360.557 103.37C359.094 103.286 357.641 103.075 356.215 102.74C355.968 102.698 355.802 102.465 355.843 102.219C355.885 101.972 356.118 101.806 356.365 101.847C356.657 101.847 357.7 101.9 359.042 101.997C360.384 102.095 361.959 102.147 363.301 102.147C365.086 102.147 366.969 102.05 368.753 101.9C370.538 101.75 372.218 101.705 373.456 101.705C378.413 101.705 382.372 103.955 382.372 108.784C382.372 115.076 375.735 117.033 372.563 118.001V118.098C376.23 118.848 380.145 119.838 380.145 124.645C380.212 132.602 370.066 133.892 365.161 133.892ZM364.816 132.894C369.968 132.894 374.828 130.472 374.828 125.215C374.828 119.321 368.926 118.631 365.214 118.631C364.074 118.631 362.964 118.676 361.794 118.728C360.849 122.74 359.709 127.945 358.869 132.354C360.837 132.667 362.824 132.848 364.816 132.894ZM377.453 109.309C377.453 104.307 372.991 102.725 369.721 102.725C368.491 102.798 367.266 102.946 366.054 103.167C365.611 104.802 362.882 114.814 362.139 117.536C363.031 117.588 363.924 117.633 364.816 117.633C370.808 117.633 377.453 116.493 377.453 109.309Z" fill="white"/>
<line x1="94.7156" y1="115.961" x2="265.691" y2="115.961" stroke="white" stroke-width="3.15"/>
<line x1="396.906" y1="115.961" x2="567.881" y2="115.961" stroke="white" stroke-width="3.15"/>
</svg>
